# xmcd CD database file
#
# Track frame offsets:
#	150
#	5862
#	24857
#	42805
#	58622
#	73347
#
# Disc length: 1183 seconds
#
# Revision: 0
# Processed by: cddbd v1.5.2PL0 Copyright (c) Steve Scherf et al.
# Submitted via: CDex 1.51
#
DISCID=4b049d06
DTITLE=Destruction - Sentence Of Death
DYEAR=1984
DGENRE=Thrash Metal
TTITLE0=Intro
TTITLE1=Total Desaster
TTITLE2=Black Mass
TTITLE3=Mad Butcher
TTITLE4=Satan's Vengeance
TTITLE5=Devil's Soldiers
EXTD=YEAR: 1984
EXTT0=
EXTT1=
EXTT2=
EXTT3=
EXTT4=
EXTT5=
PLAYORDER=
